- 
http://www.Speed.Cd
 
http://www.Speed.Cd       the fast  and The Hottest Private Tracker on the net

Please Seed back to make the speed Faster!!
 ............ NFO .............
-(  ___  )|     /|(  ____ (  __   
| (   ) |(    / )| (    /| (    )
| (___) |  (_) / | (__    | |   ) |
|  ___  |  ) _ (  |  __)   | |   | |
| (   ) | / ( )  | (      | |   ) |
| )   ( |( /    )| (____/| (__/  )
|/     ||/     |(_______/(______/ 
  _    _    _    _    _    _    _    _  
 /   /   /   /   /   /   /   /  
( p )( r )( e )( s )( e )( n )( t )( s )
 _/  _/  _/  _/  _/  _/  _/  _/
 
The.Frankenstein.Theory.2013.DVDRiP.AC3-5.1.XviD-AXED

POSTER: 
[IMG]http://img6.imageshack.us/img6/1964/theorys.jpg[/IMG]

IMDB:  
http://www.imdb.com/title/tt2646378/

PLOT INFO:
From the makers of The Last Exorcism comes a boldly original vision of horror. What if the most chilling novel of all time was actually based on a true account of a horrific experiment gone awry? When he is suspended from his university job for his outlandish ideas, Professor John Venkenheim leads a documentary film crew to the rim of the Arctic Circle in a desperate effort to vindicate his academic reputation. His theory: Mary Shelley's ghastly story, "Frankenstein," is, in fact, a work of non-fiction disguised as fantasy. In the vast, frozen wilderness, Venkenheim and his team search for the legendary monster, a creature mired in mystery and drenched in blood. What they find is an unspeakable truth more terrifying than any fiction...a nightmare from which there is no waking.


MEDIAINFO:
General
Complete name                    : The.Frankenstein.Theory.2013.DVDRiP.AC3-5.1.XviD-AXED.avi
Format                           : AVI
Format/Info                      : Audio Video Interleave
File size                        : 1.39 GiB
Duration                         : 1h 26mn
Overall bit rate                 : 2 294 Kbps

Video
ID                               : 0
Format                           : MPEG-4 Visual
Format profile                   : Advanced Simple@L5
Format settings, BVOP            : 1
Format settings, QPel            : No
Format settings, GMC             : No warppoints
Format settings, Matrix          : Default (H.263)
Codec ID                         : XVID
Codec ID/Hint                    : XviD
Duration                         : 1h 26mn
Bit rate                         : 1 838 Kbps
Width                            : 720 pixels
Height                           : 400 pixels
Display aspect ratio             : 16:9
Frame rate                       : 23.976 fps
Color space                      : YUV
Chroma subsampling               : 4:2:0
Bit depth                        : 8 bits
Scan type                        : Progressive
Compression mode                 : Lossy
Bits/(Pixel*Frame)               : 0.266
Stream size                      : 1.11 GiB (80%)
Writing library                  : XviD 1.2.1 (UTC 2008-12-04)

Audio
ID                               : 1
Format                           : AC-3
Format/Info                      : Audio Coding 3
Mode extension                   : CM (complete main)
Codec ID                         : 2000
Duration                         : 1h 26mn
Bit rate mode                    : Constant
Bit rate                         : 448 Kbps
Channel(s)                       : 6 channels
Channel positions                : Front: L C R, Side: L R, LFE
Sampling rate                    : 48.0 KHz
Bit depth                        : 16 bits
Compression mode                 : Lossy
Stream size                      : 278 MiB (20%)
Alignment                        : Aligned on interleaves
Interleave, duration             : 64 ms (1.53 video frames)
Interleave, preload duration     : 192 ms
Title                            : VTS_06_1 T80 3_2ch 448Kbps DELAY 0ms




SOURCE: 
R1 Retail DVD DISC


NOTES: 
I'm certain that this is the evolution of the genre...


SCREENS:
[IMG]http://imageshack.us/a/img69/1327/86343946.png[/IMG]
[IMG]http://imageshack.us/a/img805/2729/36532338.png[/IMG]
[IMG]http://imageshack.us/a/img404/2039/73376200.png[/IMG]
[IMG]http://imageshack.us/a/img404/6352/81804759.png[/IMG]
[IMG]http://imageshack.us/a/img26/1945/45803520.png[/IMG]
